<?xml version="1.0" standalone="no"?>
<!DOCTYPE svg PUBLIC "-//W3C//DTD SVG 20010904//EN"
 "http://www.w3.org/TR/2001/REC-SVG-20010904/DTD/svg10.dtd">
<svg version="1.0" xmlns="http://www.w3.org/2000/svg"
 width="68.000000pt" height="68.000000pt" viewBox="0 0 68.000000 68.000000"
 preserveAspectRatio="xMidYMid meet">

<g transform="translate(0.000000,68.000000) scale(0.100000,-0.100000)"
fill="#000000" stroke="none">
<path d="M247 636 c-78 -124 -102 -308 -61 -471 5 -18 -5 -26 -68 -58 -77 -38
-125 -78 -113 -96 9 -16 661 -15 671 1 11 17 -68 83 -132 109 -47 20 -54 26
-49 44 41 147 19 334 -55 463 -17 28 -37 52 -45 52 -7 0 -22 -13 -32 -30 -9
-16 -20 -30 -23 -30 -3 0 -14 14 -23 30 -10 17 -24 30 -30 30 -7 0 -24 -20
-40 -44z m63 -56 l20 -39 -43 -29 c-70 -47 -70 -47 -62 -21 10 32 55 129 61
129 2 0 13 -18 24 -40z m124 -36 c35 -86 47 -188 35 -284 -13 -107 -16 -113
-47 -105 -15 4 -28 8 -30 9 -1 2 3 37 9 77 13 87 6 184 -19 267 -17 52 -17 62
-5 86 8 15 18 24 22 21 5 -2 21 -35 35 -71z m-84 -69 c0 -8 -26 -32 -57 -53
-84 -56 -83 -56 -83 -34 0 13 22 36 63 65 61 44 77 49 77 22z m12 -208 c-6
-50 -15 -93 -19 -97 -4 -4 -31 -10 -59 -14 l-52 -6 -11 44 c-6 25 -11 62 -11
84 0 36 4 41 73 88 l72 50 9 -30 c6 -18 6 -61 -2 -119z m90 -158 c49 -11 148
-53 148 -64 0 -3 -118 -5 -262 -5 l-263 1 48 25 c97 51 218 66 329 43z"/>
</g>
</svg>
